# xmcd
#
# Track frame offsets:
#	150
#	9088
#	21068
#	32188
#	46615
#	58445
#	75138
#	85098
#	94948
#	112620
#	125420
#	140165
#	152690
#
# Disc length: 2269 seconds
#
# Revision: 0
# Processed by: cddbd v1.4PL0 Copyright (c) Steve Scherf et al.
# Submitted via: audiograbber 1.80.04
#
DISCID=9008db0d
DTITLE=Snooks Eaglin - That's All Right
DYEAR=1961
DGENRE=
TTITLE0=Mama Don't You Tear My Clothes
TTITLE1=Mailman Passed
TTITLE2=I'm A Country Boy
TTITLE3=I Got A Woman
TTITLE4=Alberta
TTITLE5=Brown Skinned Woman
TTITLE6=Don't You Lie To Me
TTITLE7=That's All Right
TTITLE8=Well, I Had My Fun (Goin' Down Slow)
TTITLE9=Bottle Up And Go
TTITLE10=The Walkin' Blues
TTITLE11=One More Drink
TTITLE12=Fly Right Baby
EXTD=
EXTT0=
EXTT1=
EXTT2=
EXTT3=
EXTT4=
EXTT5=
EXTT6=
EXTT7=
EXTT8=
EXTT9=
EXTT10=
EXTT11=
EXTT12=
PLAYORDER=
